# xmcd CD database file
#
# Track frame offsets:
#	150
#	19905
#	35817
#	52657
#	71272
#	90030
#	109307
#	127537
#	157662
#	176900
#	198075
#
# Disc length: 2798 seconds
#
# Revision: 0
# Processed by: cddbd v1.5.2PL0 Copyright (c) Steve Scherf et al.
# Submitted via: CdAid (MTCDDB.DLL V2003.12.21)
#
DISCID=780aec0b
DTITLE=Various Artist - Hot Parade 3
DYEAR=1990
DGENRE=Country
TTITLE0=New Kids On The Block - Step By Step
TTITLE1=Paul Young - Oh Girl
TTITLE2=Pianonegro - Pianonegro
TTITLE3=Basia - Cruising For Bruising
TTITLE4=Shana - I Want You
TTITLE5=Information Society - Running
TTITLE6=Jimmy Cliff - Rebel In Me
TTITLE7=In-Dex - Now That You're Gone
TTITLE8=Gipsy Kings - Caminando Por La Calle
TTITLE9=Michael Bolton - How Am I Supposed To Live Without You
TTITLE10=Harry Connick, Jr. - It Had To Be You
EXTD=ID3G:   2 YEAR: 1990
EXTT0=
EXTT1=
EXTT2=
EXTT3=
EXTT4=
EXTT5=
EXTT6=
EXTT7=
EXTT8=
EXTT9=
EXTT10=
PLAYORDER=
